<mxfile host="app.diagrams.net" modified="2023-11-23T17:10:19.653Z" agent="Mozilla/5.0 (Windows NT 10.0; Win64; x64) AppleWebKit/537.36 (KHTML, like Gecko) Chrome/109.0.0.0 Safari/537.36" version="22.1.3" etag="5NxcAD6aCF0RPsYm65Xy" type="github">
  <diagram name="Page-1" id="Zk5yT_KJrwR4NnrIWGdm">
    <mxGraphModel>
      <root>
        <mxCell id="0" />
        <mxCell id="1" parent="0" />
      </root>
    </mxGraphModel>
  </diagram>
</mxfile>
